<svg xmlns="http://www.w3.org/2000/svg" viewBox="0 0 671.34 191.42"><defs><style>.cls-1{fill:#11bfda;}.cls-1,.cls-2,.cls-3{fill-rule:evenodd;}.cls-2{fill:#0c0d1d;}.cls-3{fill:#0e0d1e;}</style></defs><g id="Layer_2" data-name="Layer 2"><g id="Layer_1-2" data-name="Layer 1"><path class="cls-1" d="M612.85,122.44c-2.34,0-3.52,1.1-3.52,3.37s1.18,3.51,3.52,3.51,3.37-1.17,3.37-3.51-1.1-3.37-3.37-3.37Zm13.61-54.89c-2.34,0-3.51,1.1-3.51,3.37s1.17,3.51,3.51,3.51,3.37-1.17,3.37-3.51-1.1-3.37-3.37-3.37ZM624.7,82.12a.83.83,0,0,0-1,.95V128c0,.66.29.95,1,.95h3.44c.66,0,1-.29,1-.95V83.07c0-.66-.3-.95-1-.95Zm46.64,27c0-.38,0-.76,0-1.12-.09-7.51.54-17.53-3.14-22.28-2.07-2.68-6.51-4-13.18-4s-11.07,1.31-13.18,4c-1.93,2.44-2.93,7.34-3.06,14.58,0,.52,0,8.28,0,8.82,0,8.13,1,13.58,3.07,16.26s6.52,3.95,13.18,3.95c7,0,10.72-.91,13.18-4.1s3.15-7.61,3.15-16.11ZM655,86.44c4.69,0,7.67,1,9,3s2,5.47,2,11c0,.46,0,8.15,0,8.63,0,6.37-.69,10.53-2.05,12.52s-4.32,3-9,3-7.64-1-9-3-2-6.15-2-12.52c0-.55,0-8.31,0-8.82.1-5.46.73-9.06,2-10.85C647.37,87.45,650.4,86.44,655,86.44Z"/><path class="cls-2" d="M224.76,67.12a1.65,1.65,0,0,1,1.23-.45h6.5a1.67,1.67,0,0,1,1.22.44h0a1.69,1.69,0,0,1,.45,1.24v58.18a2,2,0,0,1-1.8,2.09c-2.63.44-5.22.76-7.77,1s-5.1.32-7.61.32a35,35,0,0,1-9-.88,11.11,11.11,0,0,1-5.65-3.39l0,0a13.72,13.72,0,0,1-2.8-6.33,53,53,0,0,1-.7-10h0v-8.54a49.14,49.14,0,0,1,.9-9.16,14,14,0,0,1,2.44-5.8,10.41,10.41,0,0,1,5.22-3.26,29,29,0,0,1,8.39-1c1.84,0,3.54,0,5.1.11h0c1.26.06,2.4.14,3.42.25V68.36a1.72,1.72,0,0,1,.44-1.24Zm90.06,14.54c2-.15,4.11-.21,6.37-.21,6.24,0,10.53,1,13.29,3s4,5.14,4,9.35v32.49A2.94,2.94,0,0,1,338,128a2.49,2.49,0,0,1-1.39,1c-2.78.87-13,1-16.25,1a38.52,38.52,0,0,1-7.15-.58,13.37,13.37,0,0,1-4.83-1.81c-1.19-.8-2.08-2.55-2.69-4.7a31.36,31.36,0,0,1-1-8c0-4.71,1.23-9,3.82-12a13.05,13.05,0,0,1,10.36-4.4h9.75v-3.1A4.37,4.37,0,0,0,327,91.41c-1.19-.84-3.09-1.24-5.82-1.24H309.47a1.68,1.68,0,0,1-1.28-.39h0a1.69,1.69,0,0,1-.4-1.29V84.13a1.69,1.69,0,0,1,.37-1.25,2,2,0,0,1,1.12-.48,42.7,42.7,0,0,1,5.54-.74Zm13.83,39.53V107.72H319.4a4.13,4.13,0,0,0-3.46,1.72,8.6,8.6,0,0,0-1.43,5,7.54,7.54,0,0,0,1.72,5.27,6.42,6.42,0,0,0,4.89,1.77,65.77,65.77,0,0,0,7.53-.31Zm-107.89-.12c1.19-.08,2.38-.2,3.55-.35V90.17h-7.18a16,16,0,0,0-4.64.56,4.32,4.32,0,0,0-2.36,1.53,8.26,8.26,0,0,0-1,3,35.07,35.07,0,0,0-.44,5.32c0,.19,0,1.25,0,2.58v6.12a43.58,43.58,0,0,0,.37,6.3,9.92,9.92,0,0,0,1,3.53,4.18,4.18,0,0,0,2.3,1.56,14.91,14.91,0,0,0,4.54.57c1.27,0,2.56,0,3.84-.14ZM250,81.66c2-.15,4.11-.21,6.36-.21,6.24,0,10.54,1,13.3,3s4,5.14,4,9.35v32.49a2.94,2.94,0,0,1-.47,1.68,2.53,2.53,0,0,1-1.39,1c-2.79.87-13,1-16.25,1a38.44,38.44,0,0,1-7.15-.58,13.22,13.22,0,0,1-4.83-1.81c-1.2-.8-2.09-2.55-2.69-4.7a30.92,30.92,0,0,1-1-8c0-4.71,1.22-9,3.82-12a13,13,0,0,1,10.36-4.4h9.74v-3.1a4.39,4.39,0,0,0-1.63-3.87c-1.19-.84-3.1-1.24-5.83-1.24H244.63a1.71,1.71,0,0,1-1.29-.39h0a1.72,1.72,0,0,1-.39-1.29V84.13a1.65,1.65,0,0,1,.37-1.25,1.94,1.94,0,0,1,1.12-.48,42.23,42.23,0,0,1,5.54-.74Zm13.82,39.53V107.72h-9.24a4.11,4.11,0,0,0-3.46,1.72,8.53,8.53,0,0,0-1.43,5,7.58,7.58,0,0,0,1.71,5.27,6.43,6.43,0,0,0,4.89,1.77,65.58,65.58,0,0,0,7.53-.31ZM284,73a2.07,2.07,0,0,1,1-.57l6.5-1.64A1.55,1.55,0,0,1,293,71a1.64,1.64,0,0,1,.55,1.4v9.39H300a1.8,1.8,0,0,1,1.29.44,1.64,1.64,0,0,1,.47,1.24V88a1.75,1.75,0,0,1-.46,1.3h0a1.79,1.79,0,0,1-1.3.45h-6.46V118c0,1.36.17,2.16.65,2.59l0,0c.54.44,1.53.57,3.14.57h3.14a2,2,0,0,1,1.24.36l0,0a1.51,1.51,0,0,1,.54,1.21v4.71a1.75,1.75,0,0,1-1.56,1.89h0c-.9.17-1.78.3-2.62.38s-1.78.13-2.56.13h-.47a20,20,0,0,1-6-.59,6.61,6.61,0,0,1-4-2.67,10.79,10.79,0,0,1-1.42-6.06V89.74h-3.46a1.79,1.79,0,0,1-1.3-.45h0a1.71,1.71,0,0,1-.45-1.29v-4.5a1.64,1.64,0,0,1,.46-1.24h0a1.82,1.82,0,0,1,1.29-.44h3.46v-7.6a1.65,1.65,0,0,1,.39-1.13l0,0Zm87,9.22a1.25,1.25,0,0,1,1.08-.45h7.14a1.51,1.51,0,0,1,1.27.45,1.6,1.6,0,0,1,.19,1.43L372.65,121a28.66,28.66,0,0,1-1.28,4.68,6.72,6.72,0,0,1-1.92,2.65,5.59,5.59,0,0,1-3,1.36,32.15,32.15,0,0,1-4.89.22,27,27,0,0,1-4.62-.32,5.93,5.93,0,0,1-2.85-1.11h0a7.84,7.84,0,0,1-1.84-2.85,26,26,0,0,1-1.42-4.62l-8.35-37.29v0a1.57,1.57,0,0,1,.17-1.37l0,0a1.6,1.6,0,0,1,1.33-.48h7.07a1.23,1.23,0,0,1,1.08.44,2.89,2.89,0,0,1,.45,1.19L360,118.91a6.08,6.08,0,0,0,.68,2.13l0,0c.16.19.43.22.85.22s.93,0,1.13-.27h0a5,5,0,0,0,.7-2.1l7.22-35.47h0a2.72,2.72,0,0,1,.44-1.18Zm22.4.22a32.39,32.39,0,0,1,8.82-1,31.77,31.77,0,0,1,8.44.85A10.2,10.2,0,0,1,416,85.6c1.39,1.63,2.29,4.35,2.83,7.69a86.63,86.63,0,0,1,.75,12.32v2.15a2.34,2.34,0,0,1-.72,2,3.54,3.54,0,0,1-2.32.57h-22V111c0,1.55,0,2.8.06,3.18a15.79,15.79,0,0,0,.58,3.42,5,5,0,0,0,1,2h0a5,5,0,0,0,2.35,1.17,34.67,34.67,0,0,0,5.68.29h12.21a1.66,1.66,0,0,1,1.23.45h0a1.68,1.68,0,0,1,.44,1.23v4.43a1.83,1.83,0,0,1-.4,1.18,1.79,1.79,0,0,1-1,.61l-.09,0c-1.77.25-3.71.45-5.85.58s-4.49.21-7,.21c-3.52,0-7.92-.2-10.26-.87a10.57,10.57,0,0,1-5.39-3.15,14.38,14.38,0,0,1-2.64-6.32,40.16,40.16,0,0,1-.86-9.12h0v-8.72a59.91,59.91,0,0,1,.93-10.22A13.47,13.47,0,0,1,388,85.67a10.89,10.89,0,0,1,5.43-3.19Zm12.61,8.16a12.85,12.85,0,0,0-3.79-.47,14.37,14.37,0,0,0-4,.47,4.38,4.38,0,0,0-2.17,1.3c-1.28,1.59-1.6,4.23-1.56,9.42h15.11c.37-4.39-.24-7.87-1.49-9.42a4.33,4.33,0,0,0-2.1-1.3Zm20.12-23.52a1.66,1.66,0,0,1,1.23-.45h6.5a1.68,1.68,0,0,1,1.19.4l.05,0a1.67,1.67,0,0,1,.44,1.24v59.54a1.64,1.64,0,0,1-.44,1.23h0a1.72,1.72,0,0,1-1.24.44h-6.5a1.64,1.64,0,0,1-1.19-.41l0,0a1.67,1.67,0,0,1-.45-1.24V68.35a1.63,1.63,0,0,1,.45-1.23Zm52.19,36.15v6h0a50,50,0,0,1-.88,10.25,14.09,14.09,0,0,1-2.68,6.26v0a10.66,10.66,0,0,1-5.45,3.14,40.78,40.78,0,0,1-18,0,10.66,10.66,0,0,1-5.45-3.14,14.5,14.5,0,0,1-2.64-6.32,51.24,51.24,0,0,1-.86-10.21h0v-8.34h0a45.87,45.87,0,0,1,.94-9.36,13.9,13.9,0,0,1,2.54-5.87,10.89,10.89,0,0,1,5.49-3.19,39.53,39.53,0,0,1,17.93,0,11.1,11.1,0,0,1,5.48,3.15l0,0a13.62,13.62,0,0,1,2.6,5.85,44.79,44.79,0,0,1,1,9.28h0v2.45ZM468,95.47a8.66,8.66,0,0,0-1-3.15,4.11,4.11,0,0,0-2.26-1.58h0a17,17,0,0,0-8.74,0h0a4.11,4.11,0,0,0-2.26,1.58,8.38,8.38,0,0,0-1,3.12,37.08,37.08,0,0,0-.44,5.48v8.33h0a44.3,44.3,0,0,0,.37,6.36,9.26,9.26,0,0,0,1.08,3.5h0c.95,1.39,3.14,2.09,6.64,2.09a14.24,14.24,0,0,0,4.37-.56,4.24,4.24,0,0,0,2.27-1.53h0a9.42,9.42,0,0,0,1.09-3.51,44.3,44.3,0,0,0,.37-6.36h0V101a38,38,0,0,0-.43-5.54ZM492.87,82.3a35.66,35.66,0,0,1,9-.85c2.21,0,4.28.07,6.19.2a50.67,50.67,0,0,1,5.19.6,1.86,1.86,0,0,1,1.17.62,1.91,1.91,0,0,1,.41,1.26v4.36a1.61,1.61,0,0,1-.42,1.19l0,.06a1.8,1.8,0,0,1-1.29.43H501.9a13.86,13.86,0,0,0-4.37.57,4.08,4.08,0,0,0-2.26,1.58,8.35,8.35,0,0,0-1,3.07,39.42,39.42,0,0,0-.42,5.53v8.26h0a46,46,0,0,0,.36,6.36,9.83,9.83,0,0,0,1,3.54,4.13,4.13,0,0,0,2.23,1.56h0a14.24,14.24,0,0,0,4.37.56h11.21a1.8,1.8,0,0,1,1.29.44h0a1.64,1.64,0,0,1,.46,1.24v4.36a1.74,1.74,0,0,1-1.56,1.88h0c-1.59.26-3.36.46-5.29.6s-3.92.2-6.09.2a34.3,34.3,0,0,1-9.07-1,10.58,10.58,0,0,1-5.47-3.15,14.08,14.08,0,0,1-2.6-6.29,53.67,53.67,0,0,1-.83-10.31h0v-8.74h0a46.67,46.67,0,0,1,.75-8.93,13,13,0,0,1,2.59-5.76,10.24,10.24,0,0,1,5.59-3.45ZM521.41,67a6,6,0,0,1,4.27-1.44A5.92,5.92,0,0,1,530,67a5.47,5.47,0,0,1,1.48,4.13A5.48,5.48,0,0,1,530,75.27a6,6,0,0,1-4.28,1.4,6,6,0,0,1-4.23-1.41l0,0a6.18,6.18,0,0,1,0-8.19Zm-.25,15.22a1.67,1.67,0,0,1,1.24-.45h6.5a1.66,1.66,0,0,1,1.23.45h0a1.65,1.65,0,0,1,.45,1.23v44.4a1.65,1.65,0,0,1-.45,1.23h0a1.7,1.7,0,0,1-1.23.44h-6.5a1.67,1.67,0,0,1-1.2-.41l0,0a1.71,1.71,0,0,1-.44-1.24V83.49a1.68,1.68,0,0,1,.44-1.23ZM541.28,73a2.07,2.07,0,0,1,1-.57l6.5-1.64a1.55,1.55,0,0,1,1.42.19,1.64,1.64,0,0,1,.55,1.4v9.39h6.46a1.8,1.8,0,0,1,1.29.44,1.64,1.64,0,0,1,.46,1.24V88a1.75,1.75,0,0,1-.45,1.3h0a1.79,1.79,0,0,1-1.3.45h-6.46V118c0,1.36.17,2.16.65,2.59l0,0c.54.44,1.53.57,3.14.57h3.14a2,2,0,0,1,1.24.36l0,0a1.51,1.51,0,0,1,.54,1.21v4.71a1.76,1.76,0,0,1-1.57,1.89h0c-.9.17-1.78.3-2.62.38s-1.78.13-2.57.13h-.46a20.11,20.11,0,0,1-6.05-.59,6.61,6.61,0,0,1-4-2.67,10.79,10.79,0,0,1-1.42-6.06V89.74H537.4a1.79,1.79,0,0,1-1.3-.45h0a1.71,1.71,0,0,1-.46-1.29v-4.5a1.64,1.64,0,0,1,.47-1.24h0a1.8,1.8,0,0,1,1.29-.44h3.46v-7.6a1.7,1.7,0,0,1,.38-1.13l0,0Zm49,9.22a1.67,1.67,0,0,1,1.24-.45H598a1.67,1.67,0,0,1,1.24.45h0a1.66,1.66,0,0,1,.45,1.23v43.19a41.82,41.82,0,0,1-.42,6.67,17.21,17.21,0,0,1-1.5,4.88,9.22,9.22,0,0,1-5.46,4.65,30.63,30.63,0,0,1-10.23,1.34c-2.22,0-4.34-.08-6.37-.21s-3.94-.34-5.78-.59h-.05a1.63,1.63,0,0,1-1.41-1.73v-4.22a1.68,1.68,0,0,1,.42-1.21,1.56,1.56,0,0,1,1.19-.47h11.5a20.93,20.93,0,0,0,4.24-.36h0a5.25,5.25,0,0,0,2.41-1h0a3.88,3.88,0,0,0,1.16-1.9,11.42,11.42,0,0,0,.4-3.06c-1.14.16-2.33.29-3.59.38h0c-1.53.1-3.17.16-4.93.16a29.22,29.22,0,0,1-8.38-1,10.84,10.84,0,0,1-5.29-3.19,13.8,13.8,0,0,1-2.65-6,43.47,43.47,0,0,1-.86-9.35V83.49a1.66,1.66,0,0,1,.45-1.23h0a1.66,1.66,0,0,1,1.23-.45h6.5A1.54,1.54,0,0,1,574,83.49v25.69a41,41,0,0,0,.4,6.36,8.64,8.64,0,0,0,1.14,3.51,4.36,4.36,0,0,0,2.4,1.53,16.39,16.39,0,0,0,4.74.56c1.61,0,3.05,0,4.31-.11h0c1,0,2-.14,2.85-.24V83.49a1.65,1.65,0,0,1,.45-1.23Z"/><path class="cls-1" d="M4.16,91.56A17.19,17.19,0,0,1,3,89.89a12.26,12.26,0,0,1-.79-1.52c-.55,1.2-.55,1.2-1,2.36S.83,91.9.54,93c-.2,1.81-.2,1.81-.35,3.71S.07,98.54,0,100.44c.17.92.17.92.42,1.91a14.41,14.41,0,0,0,.78,2l1.06-2.11,1.42-2.16c.06-2.18.06-2.18.16-4.28s.15-2.17.32-4.28ZM111.21,9.33c.87-.26.87-.26,1.71-.47s.8-.18,1.6-.31l2.28.74,2.29.85c.47.58.47.58,1,1.21s.44.68.89,1.41c-.73.27-.73.27-1.5.58l-1.66.73c-1.29-.49-1.29-.49-2.59-1s-1.26-.44-2.58-.88c-.34-.8-.34-.8-.7-1.56l-.69-1.34Zm35,161.36c.94-.82,1.85-1.67,2.74-2.55l0,0c.43-.45.46-.48.93-1,.72-.87.72-.87,1.39-1.78l-.88.12a8.08,8.08,0,0,1-1.16-.08c-1.25,1.08-1.25,1.08-2.53,2.13s-1.34,1.05-2.69,2.08c-.55,1-.55,1-1.15,2.06s-.56.89-1.16,1.73a7.76,7.76,0,0,0,1.3-.35,6.11,6.11,0,0,0,1-.52c1.13-.93,1.16-.95,2.16-1.81ZM173,127.57l0-.06h0c.34-1.34.34-1.34.68-2.74s.32-1.47.6-3a4.61,4.61,0,0,0-.12-1,5.64,5.64,0,0,0-.41-1.26c-.5,1-.5,1-1.07,2s-.63,1-1.33,2c-.25,1.68-.25,1.68-.53,3.35s-.32,1.68-.64,3.24l.68,1a2.22,2.22,0,0,1,.4.74c.52-1.08.52-1.08,1-2.18s.38-1,.73-2.07ZM93.57,180,96,179c1.26-.53,1.26-.53,2.53-1.09,1.18.44,1.18.44,2.36.84s1.13.38,2.25.72c-.12.87-.12.87-.26,1.69s-.18.77-.34,1.49c-1.17.46-1.17.46-2.36.9l-2.3.78c-1.08-.23-1.08-.23-2.15-.49s-1.13-.29-2.25-.62c0-.72,0-.72,0-1.5s0-.84,0-1.73Zm6,7.94c1.83-.6,1.83-.6,3.7-1.25s1.84-.68,3.73-1.42c1.59.28,1.59.28,3.13.52s1.49.18,3,.28a14.56,14.56,0,0,1-.81,1.53,8.71,8.71,0,0,1-.83,1.15c-1.69.57-1.69.57-3.39,1.1s-1.65.48-3.31.91c-1.36.08-1.36.08-2.8.1s-1.51,0-3-.12a12,12,0,0,0,.28-1.2c.19-.76.19-.76.35-1.6Zm5.27-21.3,2.68-1.37c1.34-.7,1.34-.7,2.65-1.42,1.24.53,1.24.53,2.4,1.06s1.16.49,2.32.94c-.19,1.17-.19,1.17-.34,2.27s-.2,1.07-.38,2.09c-1.23.65-1.23.65-2.48,1.29l-2.49,1.2-2.29-.72-2.36-.85c.1-1.06.1-1.06.17-2.16s0-1.14.12-2.33ZM111.57,178c1.72-.82,1.72-.82,3.46-1.67l3.47-1.79,2.81.81c1.31.35,1.31.35,2.62.62-.4,1.18-.4,1.18-.81,2.27s-.4,1-.81,1.95c-1.55.79-1.55.79-3.11,1.55s-1.58.74-3.19,1.45c-1.24-.13-1.24-.13-2.54-.29s-1.35-.22-2.75-.47c.21-1,.21-1,.45-2.07s.19-1.14.4-2.36Zm5.32-28.37,2.73-1.6,2.68-1.63,2.38,1.25,2.28,1.15c-.16,1.37-.16,1.37-.34,2.71s-.17,1.29-.37,2.56l-2.47,1.53c-1.28.77-1.28.77-2.57,1.52l-2.28-1c-1.2-.52-1.2-.52-2.39-1.07.08-1.31.08-1.31.18-2.65s.1-1.39.17-2.8Zm.74,35.53a13.66,13.66,0,0,1-.71,1.32,6.8,6.8,0,0,1-.72,1c1.07-.14,1.07-.14,2.12-.34s.92-.23,1.88-.53c1.4-.57,1.4-.57,2.72-1.14s1.37-.63,2.78-1.32a8.24,8.24,0,0,0,1.1-.87,14.7,14.7,0,0,0,1.11-1.2,16.26,16.26,0,0,1-1.88.15c-1,0-1,0-2.12,0-1.56.79-1.56.79-3.14,1.56s-1.53.71-3.14,1.42ZM123.54,164l3.56-2.1c1.72-1.06,1.72-1.06,3.45-2.15,1.45.58,1.45.58,2.8,1.14l2.53,1c-.37,1.53-.37,1.53-.73,3l-.83,2.75c-1.57,1-1.57,1-3.16,2l-3.22,1.92c-1.27-.31-1.27-.31-2.59-.66l-2.83-.82c.29-1.44.29-1.44.56-2.93s.24-1.56.46-3.16Zm5.28-33.51,2.62-1.66,2.55-1.68,2.31,1.41,2.17,1.34c-.12,1.49-.12,1.49-.23,2.92s-.14,1.44-.29,2.85l-2.36,1.66c-1.22.84-1.22.84-2.45,1.66l-2.27-1.17-2.39-1.26c.11-1.49.11-1.49.19-3s.08-1.54.15-3.08Zm.09,44.15c-.46,1.33-.46,1.33-.92,2.57s-.47,1.15-.93,2.2a21.31,21.31,0,0,0,2.39.09c1.16-.07,1.16-.07,2.16-.15,1.65-1,1.65-1,3.21-1.93s1.61-1,3.13-2.07c.69-1,.69-1,1.38-2s.62-1.12,1.24-2.33l-2.08-.29c-1.13-.24-1.13-.24-2.35-.52-1.76,1.14-1.76,1.14-3.59,2.3s-1.78,1.08-3.64,2.17Zm6.63-27.79c1.71-1.13,1.71-1.13,3.4-2.29l3.29-2.32,2.66,1.46c1.23.71,1.23.71,2.43,1.34-.33,1.79-.33,1.79-.68,3.54s-.35,1.69-.73,3.33c-1.46,1.13-1.46,1.13-3,2.26l-3.1,2.22c-1.25-.48-1.25-.48-2.52-1s-1.38-.56-2.8-1.16c.28-1.77.28-1.77.52-3.56s.26-1.87.49-3.78Zm4.21-36.32c1.21-.8,1.21-.8,2.39-1.6l2.27-1.56c1.1.76,1.1.76,2.17,1.55s1,.74,2,1.5c0,1.5,0,1.5-.07,3s-.06,1.48-.14,2.94c-1,.81-1,.81-2.1,1.62l-2.22,1.65c-1.06-.69-1.06-.69-2.16-1.37l-2.31-1.4c.06-1.57.06-1.57.11-3.14s0-1.58.05-3.15Zm1.08,49.83c1.79-1.26,1.79-1.26,3.52-2.53s1.68-1.26,3.36-2.57a21.87,21.87,0,0,1,2.21,1c1,.39,1,.39,2,.71-.59,1.61-.59,1.61-1.2,3.15s-.62,1.47-1.26,2.86c-1.44,1.22-1.44,1.22-2.9,2.4s-1.52,1.2-3.12,2.41a20.07,20.07,0,0,1-2.06-.34c-1.14-.24-1.14-.24-2.37-.52.46-1.5.46-1.5,1-3.12s.47-1.67.9-3.41ZM146.58,128c1.57-1.13,1.57-1.13,3.1-2.28s1.48-1.14,2.92-2.27c1.26.87,1.26.87,2.46,1.75s1.13.85,2.21,1.64c-.2,1.89-.2,1.89-.44,3.79s-.24,1.82-.53,3.65c-1.27,1.15-1.27,1.15-2.62,2.33l-2.78,2.3-2.42-1.34-2.65-1.5c.23-2,.23-2,.42-4s.17-2,.33-4.09Zm2.25-36.76,2-1.33c1-.67,1-.67,1.88-1.28,1,.82,1,.82,2,1.63s.92.78,1.81,1.58c.09,1.38.09,1.38.15,2.79s0,1.41.08,2.85l-1.71,1.42c-.92.76-.92.76-1.88,1.51l-2-1.51c-1.06-.78-1.06-.78-2.16-1.56,0-1.52,0-1.52-.06-3.06s0-1.52-.12-3Zm3.1,52.3c-.38,2-.38,2-.76,4s-.42,1.92-.86,3.8c1.16.5,1.16.5,2.21,1l1.94.74c1.37-1.25,1.37-1.25,2.76-2.6s1.28-1.28,2.54-2.61c.53-1.68.53-1.68,1-3.42s.5-1.81.94-3.62a14,14,0,0,0-1.7-1.16c-1-.66-1-.66-2-1.41-1.45,1.32-1.45,1.32-3,2.69s-1.55,1.3-3.14,2.6Zm3.94-34.6c1.33-1,1.33-1,2.61-2.09l2.38-2.06c1.13,1,1.13,1,2.19,2s1,.94,1.93,1.92c0,1.85,0,1.85-.13,3.76s-.1,1.85-.23,3.72l-2.1,2.19-2.32,2.2-2.18-1.7c-1.19-.87-1.19-.87-2.45-1.76.11-2,.11-2,.2-4.11s.06-2,.1-4.11Zm-.53-34.79c.83-.47.83-.47,1.59-1l1.38-.89c.9.85.9.85,1.73,1.67s.8.81,1.56,1.62c.22,1.24.22,1.24.42,2.48s.18,1.27.35,2.58l-1.24,1.08-1.43,1.14c-.88-.79-.88-.79-1.79-1.57s-1-.81-1.95-1.61c-.13-1.43-.13-1.43-.28-2.82s-.16-1.37-.34-2.73ZM155,155.67c1.19-1.11,1.19-1.11,2.37-2.25s1.15-1.18,2.21-2.3l1,.46a2.25,2.25,0,0,0,.66.33c-.61,1.24-.61,1.24-1.24,2.4s-.63,1.08-1.3,2.14c-.9,1.13-.9,1.13-1.83,2.23s-1,1.08-2,2.17a3.29,3.29,0,0,1-.85.07,6.85,6.85,0,0,1-1.17-.07c.56-1.21.56-1.21,1.12-2.48s.5-1.3,1-2.7Zm6.3-30,2.63-2.52c1.22-1.22,1.22-1.22,2.36-2.44.9.84.9.84,1.72,1.68L169.4,124c-.27,1.91-.27,1.91-.59,3.83s-.35,1.91-.73,3.75c-1,1.27-1,1.27-2,2.57s-1.07,1.25-2.24,2.58c-.79-.58-.79-.58-1.68-1.19s-.94-.71-2-1.44c.31-2,.31-2,.6-4.13s.26-2.13.5-4.3Zm1-34.87,2.12-1.8c.95-.83.95-.83,1.82-1.66,1,1.15,1,1.15,2,2.29s.9,1.11,1.72,2.2c.16,1.91.16,1.91.28,3.82s.09,1.91.14,3.81l-1.52,1.92c-.88,1.06-.88,1.06-1.82,2.07-1-1-1-1-2.05-2.11s-1.13-1.07-2.33-2.16c0-2.12,0-2.12-.12-4.2s-.11-2.14-.23-4.18Zm-3.69-30.23c.57-.23.57-.23,1.06-.46l.85-.36c.74.82.74.82,1.43,1.63s.65.79,1.27,1.61c.38,1,.38,1,.72,2s.33,1.06.63,2.12c-.31.32-.31.32-.67.66s-.42.35-.9.72c-.75-.81-.75-.81-1.54-1.62s-.84-.83-1.7-1.65c-.26-1.19-.26-1.19-.54-2.39s-.29-1.13-.61-2.26Zm5.7,79.39c-.39,1.59-.39,1.59-.84,3.18s-.43,1.47-.9,2.94l.92.55a3.21,3.21,0,0,1,.67.33c.8-1.12.8-1.12,1.57-2.27s.69-1.12,1.33-2.27.55-1.27,1-2.55.51-1.42,1-2.79c-.17-.33-.17-.33-.4-.74l-.73-.85c-.8,1.06-.8,1.06-1.69,2.2s-1,1.16-1.94,2.27Zm3.74-32.22c1.06-1.14,1.06-1.14,2-2.31s.9-1.15,1.71-2.25c.76,1.15.76,1.15,1.44,2.26s.58,1,1.08,2c-.07,2-.07,2-.18,4s-.15,2-.33,4c-.61,1.19-.61,1.19-1.32,2.43s-.78,1.21-1.65,2.52a12.83,12.83,0,0,0-1.45-1.69c-.84-1-.84-1-1.78-1.9.15-2.21.15-2.21.28-4.48s.1-2.33.16-4.6ZM166,75.4c.35,1.87.35,1.87.65,3.73s.28,1.92.52,3.83c1,1.16,1,1.16,2,2.29s.88,1.11,1.69,2.2c.55-.75.55-.75,1-1.49s.39-.68.72-1.28c-.28-1.71-.28-1.71-.6-3.41s-.35-1.63-.73-3.25c-.62-1.13-.62-1.13-1.31-2.3s-.77-1.19-1.61-2.41c-.46.46-.46.46-1,1A10,10,0,0,1,166,75.4Zm6,16.16c.17,2.11.17,2.11.32,4.28s.1,2.1.16,4.28l1.42,2.16,1.06,2.11a14.41,14.41,0,0,0,.78-2,15.42,15.42,0,0,0,.42-1.91c-.07-1.9-.07-1.9-.18-3.72s-.16-1.9-.36-3.71c-.29-1.11-.29-1.11-.67-2.28s-.46-1.16-1-2.36a10,10,0,0,1-.79,1.52A17.19,17.19,0,0,1,172,91.56ZM154.6,47.51c-.79-.78-.79-.78-1.63-1.56s-.86-.76-1.73-1.5l-1.08.07-1.24.22c.34.92.34.92.68,1.89s.31,1,.65,2.09c1,.77,1,.77,2,1.6s1,.8,1.91,1.63l1.13-.51a9.33,9.33,0,0,0,.93-.39c-.36-.92-.36-.92-.79-1.85s-.4-.86-.85-1.69Zm-1.47,10.14c-1.14-1-1.14-1-2.32-2l-2.43-1.91c-.94.36-.94.36-1.91.77l-2.14.88c.27,1.48.27,1.48.51,3s.24,1.55.47,3.14c1.39,1,1.39,1,2.75,2l2.6,2c1-.62,1-.62,2-1.16l1.76-1.08c-.29-1.47-.29-1.47-.61-2.9s-.34-1.4-.69-2.76ZM146.78,18c-.89-.68-.89-.68-1.82-1.36s-.92-.64-1.88-1.28L142,15.14l-1.3-.07c.37.66.37.66.7,1.35s.32.74.65,1.54c1.09.7,1.09.7,2.17,1.43s1.07.74,2.1,1.48a12,12,0,0,1,1.23-.23l1.07-.06c-.42-.72-.42-.72-.88-1.4a14.82,14.82,0,0,0-.91-1.19Zm1.56,54.08c-1.41-1.09-1.41-1.09-2.84-2.16s-1.47-1.08-3-2.18c-1.3.72-1.3.72-2.69,1.42s-1.42.76-2.86,1.57c.13,1.87.13,1.87.27,3.8s.13,2,.24,3.94c1.63,1.08,1.63,1.08,3.24,2.17l3.1,2.14L146.55,81c1.29-.87,1.29-.87,2.54-1.67-.15-1.86-.15-1.86-.34-3.71s-.19-1.8-.41-3.58ZM141.9,42c-1.23-.88-1.23-.88-2.51-1.76s-1.29-.86-2.59-1.7a15.15,15.15,0,0,0-2,.43c-1.08.27-1.08.27-2.2.58.3,1.21.3,1.21.57,2.46s.26,1.3.49,2.64c1.47.92,1.47.92,2.93,1.86l2.82,1.89c1.08-.46,1.08-.46,2.14-.87s1-.41,1.89-.77c-.36-1.27-.36-1.27-.74-2.48s-.39-1.17-.8-2.28Zm-1.07,47.65c-1.67-1.17-1.67-1.17-3.36-2.33L134,85l-3.42,2c-1.77,1-1.77,1-3.59,2.07.06,2.27.06,2.27.1,4.52l0,4.54,3.69,2.29c1.8,1.09,1.8,1.09,3.56,2.22,1.74-1.14,1.74-1.14,3.43-2.2l3.27-2.19c0-2.17,0-2.17-.07-4.33s-.07-2.15-.15-4.29Zm-3.76-35.73c-1.53-1-1.53-1-3.06-2.05l-3.18-2L128.08,51c-1.47.61-1.47.61-3,1.27.19,1.69.19,1.69.35,3.42s.14,1.76.31,3.59l3.4,2.09,3.35,2.15L135.42,62c1.37-.73,1.37-.73,2.71-1.4-.23-1.73-.23-1.73-.51-3.44s-.26-1.63-.55-3.24Zm-7.71-24.51c-1.05-.59-1.05-.59-2.12-1.17s-1.08-.56-2.18-1.1c-.81,0-.81,0-1.67.08s-.9.09-1.84.21a14.5,14.5,0,0,1,.44,1.45c.21.81.21.81.42,1.67l2.4,1.26c1.2.66,1.2.66,2.43,1.36.93-.26.93-.26,1.82-.48l1.64-.36c-.32-.81-.32-.81-.65-1.56a12.38,12.38,0,0,0-.69-1.36Zm2.41,79.42-4.08-2.54c-2.09-1.27-2.09-1.27-4.22-2.6-2.15,1.32-2.15,1.32-4.33,2.6s-2.21,1.33-4.44,2.65c0,2.65,0,2.65,0,5.28s0,2.62-.06,5.22c2.19,1.24,2.19,1.24,4.33,2.49s2.14,1.2,4.22,2.39l4.26-2.67,4.15-2.67c.07-2.51.07-2.51.14-5.06s0-2.55.07-5.09Zm-1.7-39.26c-1.94-1.26-1.94-1.26-3.88-2.48s-2-1.23-4-2.44l-3.76,1.92-3.91,2c.08,2.27.08,2.27.16,4.57s.07,2.34.14,4.71L119,80.41l4.09,2.5L127,80.68c1.85-1.1,1.85-1.1,3.67-2.16-.11-2.26-.11-2.26-.26-4.54s-.15-2.22-.32-4.41Zm-6.25-31.08-2.43-1.37L119,35.85c-1.07.3-1.07.3-2.12.64l-2.26.74c.13,1.05.13,1.05.23,2.14s.12,1.14.2,2.31l2.67,1.43,2.6,1.47,2.27-1c1.07-.45,1.07-.45,2.12-.87-.19-1.13-.19-1.13-.41-2.22l-.45-2Zm-3,90.46c-.1,2.64-.1,2.64-.22,5.26s-.13,2.58-.3,5.14l-4.6,2.76-4.64,2.69-4.53-2.3c-2.28-1.22-2.28-1.22-4.62-2.45,0-2.6,0-2.6.08-5.23s0-2.68.09-5.39l4.83-2.8c2.41-1.41,2.41-1.41,4.81-2.84,2.32,1.33,2.32,1.33,4.63,2.62s2.25,1.29,4.47,2.54Zm-.3-40.61c.06,2.57.06,2.57.09,5.13s0,2.62.06,5.23c-2.15,1.29-2.15,1.29-4.34,2.58s-2.21,1.3-4.44,2.64l-4.52-2.64c-2.28-1.34-2.28-1.34-4.58-2.67,0-2.66,0-2.66,0-5.32s0-2.64,0-5.28l4.52-2.55L111.69,83l4.46,2.67c2.2,1.34,2.2,1.34,4.38,2.69Zm-5-36c-1.3-.75-1.3-.75-2.61-1.48s-1.33-.73-2.66-1.43l-2.5,1.09L105.2,51.7c0,1.33,0,1.33.08,2.69l.08,2.84,2.79,1.54,2.76,1.57c1.34-.67,1.34-.67,2.62-1.33L116,57.74c-.1-1.4-.1-1.4-.24-2.78s-.11-1.33-.26-2.63Zm-6.84,96.18c-2.26-1.12-2.26-1.12-4.53-2.29l-4.62-2.43-4.78,2.61-4.7,2.52c0,2.44,0,2.44,0,4.83s0,2.33,0,4.6l4.56,2.17,4.39,2c2.31-1.15,2.31-1.15,4.55-2.3s2.29-1.19,4.61-2.43c.13-2.23.13-2.23.25-4.53s.13-2.36.27-4.79Zm1.45-40.17c-2.53-1.49-2.53-1.49-5.09-3l-5.15-3-5.19,3-5.22,3c0,3,0,3,0,6s0,3,0,6l5.16,2.93,5.12,2.87,5.15-3c2.54-1.48,2.54-1.48,5.08-3,0-2.94,0-2.94.08-5.88s0-3,0-6Zm-5-38.39c-1.4-.81-1.4-.81-2.79-1.59s-1.4-.79-2.79-1.55l-2.75,1.43L94,69.74c0,1.53,0,1.53,0,3.09s0,1.58,0,3.18l2.87,1.62,2.87,1.65,2.82-1.59c1.38-.78,1.38-.78,2.77-1.54-.05-1.59-.05-1.59-.1-3.15s0-1.54-.09-3Zm-1.53-33.57c-1.27-.6-1.27-.6-2.56-1.18L98.6,34.12c-1.2.42-1.2.42-2.45.88l-2.49,1c0,1.06,0,1.06,0,2.16s0,1.16,0,2.35l2.64,1.26L99,43.1l2.57-1.18,2.49-1.08c-.09-1.18-.09-1.18-.19-2.32s-.11-1.09-.23-2.14Zm-2.51-18.67c-1-.27-1-.27-2.12-.52S98,17,97,16.79c-1,.05-1,.05-2,.13s-1,.11-2,.26A3.12,3.12,0,0,0,93,18v1c1.14.3,1.14.3,2.26.62s1.14.35,2.3.73l2.16-.49c1.06-.2,1.06-.2,2.08-.36a8.2,8.2,0,0,0-.33-1,5.86,5.86,0,0,0-.3-.75ZM96.25,165.9c-.07,1.91-.07,1.91-.13,3.75S96,171.41,96,173.1c-2,.88-2,.88-4,1.73l-4,1.56c-2-.78-2-.78-4-1.6s-2.06-.86-4.07-1.75c-.13-1.69-.13-1.69-.21-3.45s-.1-1.84-.21-3.75c2-.91,2-.91,4.12-1.87l4.25-2c2.1,1,2.1,1,4.25,2l4.15,1.89ZM98,129.2c0,2.86,0,2.86-.07,5.7s-.05,2.8-.08,5.55l-5.06,2.78-5,2.68c-2.54-1.34-2.54-1.34-5.07-2.7l-5.06-2.8c0-2.74,0-2.74-.1-5.54s0-2.83-.09-5.7l5.1-2.85,5.15-2.92c2.57,1.47,2.57,1.47,5.16,2.93L98,129.2ZM93.45,90l-2.87-1.65-2.87-1.63-2.87,1.63L82,90c0,1.65,0,1.65,0,3.3s0,1.66,0,3.32l2.87,1.67L87.7,100l2.89-1.67,2.89-1.67c0-1.66,0-1.66,0-3.32s0-1.65,0-3.3ZM93.17,51.4c-1.33-.68-1.33-.68-2.69-1.35l-2.64-1.27-2.68,1.29-2.69,1.36c-.07,1.33-.07,1.33-.1,2.69s-.06,1.41-.09,2.84L85,58.37l2.78,1.48,2.79-1.49,2.76-1.43c0-1.43,0-1.43-.08-2.83s0-1.37-.08-2.7Zm-7.66,97.51c-2.37-1.26-2.37-1.26-4.74-2.54s-2.4-1.3-4.79-2.63l-4.58,2.4-4.46,2.27c.15,2.41.15,2.41.3,4.78s.15,2.29.31,4.52c2.29,1.24,2.29,1.24,4.58,2.45s2.28,1.18,4.53,2.32l4.41-2c2.23-1,2.23-1,4.49-2.14,0-2.27,0-2.27,0-4.6s0-2.39,0-4.83Zm.38-40.52-5.21-3-5.17-3c-2.57,1.5-2.57,1.5-5.13,3s-2.54,1.48-5,3c0,3,0,3,0,5.92s0,3,.09,5.88l5.07,3c2.56,1.5,2.56,1.5,5.12,3l5.1-2.86,5.16-2.92c0-3,0-3,0-6s0-3,0-6ZM81.26.32c-1-.13-1-.13-2-.23S78.28,0,77.34,0c-1,.2-1,.2-2.06.43S74.2.69,73.13,1l-.33.74-.36,1c1,.15,1,.15,2,.33l2.14.46,2.33-.76,2.28-.65a6.44,6.44,0,0,1,0-1,3.81,3.81,0,0,1,0-.77ZM73.41,129.4c0,2.71,0,2.71.1,5.38s0,2.63.13,5.23L69,142.42l-4.44,2.3c-2.36-1.37-2.36-1.37-4.64-2.72l-4.58-2.77c-.15-2.52-.15-2.52-.3-5.1s-.13-2.6-.25-5.24c2.18-1.26,2.18-1.26,4.42-2.51l4.56-2.63c2.38,1.43,2.38,1.43,4.78,2.84S71,128,73.41,129.4ZM72.7,88c0,2.61,0,2.61,0,5.25l0,5.31-4.56,2.67-4.48,2.66c-2.21-1.31-2.21-1.31-4.4-2.65l-4.28-2.6c0-2.58,0-2.58.06-5.19s.05-2.56.11-5.12C57.25,87,57.25,87,59.42,85.7L63.85,83l4.37,2.48c2.24,1.25,2.24,1.25,4.48,2.54ZM70.52,51.79c-1.31-.58-1.31-.58-2.57-1.16l-2.46-1.07L62.85,51l-2.61,1.5c-.14,1.29-.14,1.29-.26,2.61s-.13,1.36-.26,2.76l2.47,1.25,2.58,1.33,2.77-1.59,2.76-1.54c0-1.43,0-1.43.1-2.83s0-1.37.12-2.7ZM60.83,109l-4.39-2.64c-2.16-1.34-2.16-1.34-4.28-2.62C50.06,105,50.06,105,48,106.3s-2,1.28-4,2.55c0,2.53,0,2.53.07,5.05s.08,2.54.16,5c2,1.32,2,1.32,4.08,2.64s2.09,1.34,4.21,2.67l4.15-2.37L61,119.41c0-2.59,0-2.59-.08-5.21s0-2.62-.05-5.25Zm.24-40.25-3.84-2c-1.88-1-1.88-1-3.7-1.89-2,1.21-2,1.21-3.93,2.45l-3.81,2.47c-.18,2.17-.18,2.17-.36,4.41s-.15,2.24-.28,4.51c1.79,1,1.79,1,3.62,2.11s1.86,1.11,3.77,2.22l4.05-2.5c2.06-1.26,2.06-1.26,4.14-2.5.06-2.36.06-2.36.14-4.69s.11-2.31.2-4.57Zm.32-31.24-2.22-.71c-1-.33-1-.33-2.08-.61-1.22.64-1.22.64-2.43,1.3s-1.19.67-2.37,1.36c-.25,1-.25,1-.48,2s-.24,1.1-.44,2.2l2.07.85,2.21.95,2.6-1.49,2.62-1.43c.11-1.18.11-1.18.24-2.31s.14-1.09.28-2.14Zm8.07-16.79c-1.07,0-1.07,0-2,.1s-1,.11-1.87.26c-1.27.42-1.27.42-2.48.85s-1.19.46-2.43,1a7,7,0,0,0-.81.82A11.27,11.27,0,0,0,59,24.75c1,0,1,0,1.94,0s1,.08,2.1.21l2.75-1.2c1.38-.55,1.38-.55,2.77-1.08L69,21.55a7.22,7.22,0,0,1,.44-.88ZM48.74,89.16C47,88.1,47,88.1,45.22,87.09l-3.35-2c-1.73,1.14-1.73,1.14-3.44,2.32s-1.65,1.14-3.28,2.3c-.1,2.14-.1,2.14-.16,4.25s-.05,2.15-.09,4.32l3.19,2.16,3.37,2.25c1.73-1.11,1.73-1.11,3.49-2.26s1.8-1.14,3.64-2.28c0-2.26,0-2.26,0-4.52l.1-4.47Zm2.08-36.67-2.9-1.23c-1.36-.58-1.36-.58-2.68-1.12-1.59,1-1.59,1-3.14,2s-1.51,1-3,2.06c-.3,1.59-.3,1.59-.58,3.21s-.26,1.68-.52,3.41c1.3.65,1.3.65,2.64,1.35l2.8,1.52,3.29-2.13,3.39-2.13c.16-1.81.16-1.81.33-3.56s.18-1.73.39-3.41Zm-4-36.33c-.9-.11-.9-.11-1.77-.19s-.81,0-1.62,0c-1.09.55-1.09.55-2.13,1.11s-1.07.59-2.12,1.21c-.37.64-.37.64-.74,1.34s-.33.74-.65,1.53l1.57.34,1.76.45c1.19-.7,1.19-.7,2.4-1.37l2.4-1.29c.2-.85.2-.85.44-1.65l.46-1.44ZM39.05,70.88l-2.79-1.54c-1.33-.71-1.33-.71-2.63-1.38C32.15,69,32.15,69,30.72,70.11L28,72.26c-.23,1.76-.23,1.76-.45,3.58s-.19,1.83-.34,3.64l2.44,1.67,2.67,1.71,3-2.12,3.19-2.18c.11-2,.11-2,.26-3.91s.13-1.89.29-3.77ZM43.67,40l-2.09-.57c-1-.22-1-.22-1.95-.38-1.26.83-1.26.83-2.55,1.72s-1.24.87-2.47,1.78c-.42,1.1-.42,1.1-.83,2.25S33.39,46,33,47.2l1.83.72c1,.43,1,.43,2,.87,1.4-1,1.4-1,2.77-1.9s1.44-1,2.88-1.87c.27-1.35.27-1.35.56-2.65s.28-1.23.58-2.42ZM32,55.79c-1-.47-1-.47-2-.88s-.93-.4-1.82-.75c-1.23,1-1.23,1-2.38,1.94s-1.15,1-2.25,1.95c-.37,1.36-.37,1.36-.73,2.75s-.31,1.4-.63,2.87l1.69,1c.94.55.94.55,1.9,1.17l2.55-2c1.33-1,1.33-1,2.68-2,.24-1.6.24-1.6.5-3.14s.26-1.49.52-2.93ZM27.75,29.3c-.65,0-.65,0-1.24.11s-.56.11-1.07.24c-.92.64-.92.64-1.82,1.29s-.89.67-1.73,1.34c-.5.58-.5.58-1,1.19s-.47.67-.9,1.37l1,.06a6.68,6.68,0,0,1,1.16.19c1-.76,1-.76,2.06-1.5l2.14-1.44c.32-.78.32-.78.66-1.51s.37-.7.74-1.34Zm.07,16-1.18-.19a4,4,0,0,0-1-.06c-.86.76-.86.76-1.67,1.51s-.8.77-1.58,1.56C22,49,22,49,21.54,49.8s-.42.9-.82,1.85a4.87,4.87,0,0,1,.86.33c.49.24.49.24,1.05.47.92-.82.92-.82,1.87-1.64s1-.8,2-1.6c.32-1,.32-1,.65-2s.34-1,.7-1.86Zm2.09,125.38c-.94-.82-1.85-1.67-2.74-2.55l0,0c-.43-.45-.46-.48-.93-1-.72-.87-.72-.87-1.39-1.78l.88.12a9.72,9.72,0,0,0,1.16-.07c1.26,1.07,1.26,1.07,2.53,2.12s1.34,1.05,2.69,2.08c.55,1,.55,1,1.15,2.06s.56.89,1.16,1.73A7.4,7.4,0,0,1,33.1,173a5.43,5.43,0,0,1-1-.52c-1.14-.93-1.17-.95-2.17-1.81ZM3.17,127.57l0-.06h0c-.35-1.34-.35-1.34-.69-2.74s-.32-1.47-.6-3a4.61,4.61,0,0,1,.12-1,5.64,5.64,0,0,1,.41-1.26c.5,1,.5,1,1.08,2s.62,1,1.32,2c.25,1.68.25,1.68.53,3.35s.32,1.68.64,3.24l-.68,1a2.22,2.22,0,0,0-.4.74c-.52-1.08-.52-1.08-1-2.18s-.37-1-.73-2.07Zm90.22,61c-1.29-.28-1.29-.28-2.61-.6s-1.36-.36-2.74-.76c-1.35.38-1.35.38-2.71.72s-1.28.31-2.58.57c.13.64.13.64.22,1.2a8.13,8.13,0,0,0,.22.91c1.25.27,1.25.27,2.51.5s1.22.18,2.44.33c1.18-.12,1.18-.12,2.4-.29s1.26-.21,2.52-.46c.07-.42.07-.42.18-.91s.06-.57.15-1.21ZM82.58,180l-2.47-1-2.53-1.08c-1.18.43-1.18.43-2.36.83s-1.13.38-2.25.72c.12.87.12.87.27,1.69l.33,1.49c1.17.46,1.17.46,2.36.9l2.3.78c1.08-.23,1.08-.23,2.15-.49s1.13-.29,2.25-.62c0-.72,0-.72,0-1.5s0-.84,0-1.73ZM81.47,69.76l-2.79-1.49-2.74-1.41L73.17,68.4,70.4,70c-.08,1.52-.08,1.52-.14,3s0,1.55-.08,3.13l2.72,1.55,2.81,1.57,2.87-1.65L81.45,76c0-1.59,0-1.59,0-3.17s0-1.56,0-3.09ZM76.57,187.9c-1.83-.6-1.83-.6-3.7-1.25S71,186,69.14,185.23c-1.59.28-1.59.28-3.13.52s-1.49.18-3,.28a12.92,12.92,0,0,0,.82,1.53,7.85,7.85,0,0,0,.82,1.15c1.69.57,1.69.57,3.39,1.1s1.65.48,3.31.91c1.36.08,1.36.08,2.8.1s1.51,0,3-.12a12,12,0,0,1-.28-1.2c-.18-.76-.18-.76-.35-1.6ZM71.3,166.6l-2.68-1.37c-1.34-.7-1.34-.7-2.65-1.42-1.24.53-1.24.53-2.4,1.06s-1.16.49-2.32.94c.19,1.17.19,1.17.34,2.27s.2,1.07.38,2.09c1.23.65,1.23.65,2.48,1.29l2.49,1.2,2.29-.72,2.36-.85c-.1-1.06-.1-1.06-.17-2.16s0-1.14-.12-2.33ZM64.58,178c-1.72-.82-1.72-.82-3.46-1.67l-3.47-1.79-2.81.81c-1.31.35-1.31.35-2.62.62.4,1.18.4,1.18.81,2.27s.41,1,.81,1.95c1.55.79,1.55.79,3.11,1.55s1.59.74,3.19,1.45c1.24-.13,1.24-.13,2.54-.29s1.36-.22,2.75-.47L65,180.4c-.2-1.14-.2-1.14-.41-2.36Zm-5.32-28.37-2.73-1.6-2.68-1.63-2.38,1.26-2.27,1.14c.16,1.37.16,1.37.33,2.71s.17,1.29.37,2.56l2.47,1.53c1.28.77,1.28.77,2.57,1.52l2.28-1c1.2-.52,1.2-.52,2.39-1.07-.08-1.31-.08-1.31-.18-2.65s-.1-1.39-.17-2.8Zm-.74,35.53a13.66,13.66,0,0,0,.71,1.32,6.8,6.8,0,0,0,.72,1c-1.07-.14-1.07-.14-2.12-.34s-.92-.23-1.88-.53c-1.39-.57-1.39-.57-2.72-1.14s-1.37-.63-2.77-1.32a7.73,7.73,0,0,1-1.11-.87,14.7,14.7,0,0,1-1.11-1.2,16.63,16.63,0,0,0,1.88.15c1,0,1,0,2.13,0,1.55.79,1.55.79,3.13,1.56s1.53.71,3.14,1.42ZM52.61,164c-1.78-1-1.78-1-3.55-2.1s-1.73-1.06-3.46-2.15c-1.45.58-1.45.58-2.8,1.14l-2.53,1,.74,3c.42,1.42.42,1.42.82,2.75l3.16,2,3.22,1.92c1.27-.31,1.27-.31,2.6-.66l2.82-.82c-.29-1.44-.29-1.44-.56-2.93s-.24-1.56-.46-3.16Zm-5.28-33.51-2.62-1.66-2.55-1.68-2.3,1.41-2.18,1.34c.12,1.49.12,1.49.23,2.92s.14,1.44.29,2.85l2.36,1.66c1.22.84,1.22.84,2.45,1.66l2.27-1.17,2.39-1.25c-.11-1.5-.11-1.5-.19-3s-.08-1.54-.15-3.08Zm-.09,44.15c.46,1.33.46,1.33.93,2.57s.46,1.15.92,2.2a21.31,21.31,0,0,1-2.39.09l-2.16-.15c-1.65-1-1.65-1-3.21-1.93s-1.61-1-3.13-2.07c-.69-1-.69-1-1.37-2s-.63-1.12-1.25-2.33l2.09-.29,2.34-.52c1.76,1.14,1.76,1.14,3.59,2.3s1.79,1.08,3.64,2.17Zm-6.63-27.79c-1.71-1.13-1.71-1.13-3.4-2.29l-3.29-2.32-2.66,1.46c-1.23.71-1.23.71-2.42,1.34.32,1.79.32,1.79.67,3.54s.35,1.69.73,3.33c1.46,1.13,1.46,1.13,3,2.26l3.1,2.22c1.25-.48,1.25-.48,2.53-1l2.79-1.16c-.28-1.77-.28-1.77-.52-3.56s-.25-1.87-.49-3.78Zm-4.2-36.32c-1.22-.8-1.22-.8-2.4-1.6l-2.27-1.56c-1.1.76-1.1.76-2.16,1.55s-1,.74-2,1.5c0,1.5,0,1.5.07,3s.06,1.48.14,2.94c1,.81,1,.81,2.1,1.62l2.23,1.65c1-.69,1-.69,2.15-1.37l2.31-1.4c-.06-1.57-.06-1.57-.1-3.14s0-1.58-.05-3.15Zm-1.09,49.83c-1.78-1.26-1.78-1.26-3.52-2.53s-1.68-1.26-3.35-2.57a21.12,21.12,0,0,0-2.22,1c-1,.39-1,.39-2,.71.59,1.61.59,1.61,1.2,3.15s.63,1.47,1.27,2.86c1.43,1.22,1.43,1.22,2.89,2.4s1.52,1.2,3.12,2.41a20.07,20.07,0,0,0,2.06-.34c1.14-.24,1.14-.24,2.37-.52-.46-1.5-.46-1.5-1-3.12s-.47-1.67-.9-3.41ZM29.57,128c-1.57-1.13-1.57-1.13-3.1-2.28s-1.48-1.14-2.92-2.27c-1.26.87-1.26.87-2.46,1.75l-2.2,1.64c.2,1.89.2,1.89.43,3.79s.25,1.82.53,3.65c1.27,1.15,1.27,1.15,2.62,2.33l2.78,2.3,2.42-1.34,2.65-1.5c-.23-2-.23-2-.42-4s-.17-2-.33-4.09ZM27.32,91.24l-2.05-1.33c-.95-.67-.95-.67-1.88-1.28-1,.82-1,.82-2,1.63s-.92.78-1.81,1.58c-.08,1.38-.08,1.38-.15,2.79s0,1.41-.08,2.85L21.1,98.9c.92.76.92.76,1.88,1.51l2-1.51c1.05-.78,1.05-.78,2.15-1.56,0-1.52,0-1.52.06-3.06s.05-1.52.12-3Zm-3.1,52.3c.38,2,.38,2,.77,4s.41,1.92.85,3.8c-1.15.5-1.15.5-2.21,1l-1.94.74c-1.37-1.25-1.37-1.25-2.76-2.6s-1.28-1.28-2.53-2.61c-.54-1.68-.54-1.68-1-3.42s-.5-1.81-.94-3.62a15.8,15.8,0,0,1,1.7-1.16c1-.66,1-.66,2-1.41,1.45,1.32,1.45,1.32,3,2.69s1.55,1.3,3.14,2.6Zm-3.93-34.6c-1.34-1-1.34-1-2.62-2.09l-2.38-2.06c-1.13,1-1.13,1-2.19,2s-1,.94-1.93,1.92c.05,1.85.05,1.85.13,3.76s.1,1.85.23,3.72l2.1,2.19,2.32,2.2,2.18-1.7,2.45-1.76c-.11-2-.11-2-.2-4.11s-.05-2-.09-4.11Zm.53-34.79c-.83-.47-.83-.47-1.6-1l-1.38-.89L16.11,74c-.8.81-.8.81-1.56,1.62-.22,1.24-.22,1.24-.42,2.48s-.18,1.27-.34,2.57L15,81.74l1.43,1.14c.88-.79.88-.79,1.79-1.57s1-.81,2-1.61c.14-1.43.14-1.43.28-2.82s.16-1.37.35-2.73Zm.32,81.52c-1.2-1.11-1.2-1.11-2.38-2.25s-1.15-1.18-2.21-2.3l-1,.46a2.42,2.42,0,0,1-.67.33c.61,1.24.61,1.24,1.24,2.4s.63,1.08,1.3,2.14c.9,1.13.9,1.13,1.83,2.23s1,1.08,2,2.17a3.29,3.29,0,0,0,.85.07,7,7,0,0,0,1.18-.07c-.57-1.21-.57-1.21-1.13-2.48s-.5-1.3-1-2.7Zm-6.31-30-2.63-2.52C11,121.9,11,121.9,9.84,120.68c-.9.84-.9.84-1.72,1.68L6.75,124c.27,1.91.27,1.91.59,3.83s.36,1.91.73,3.75c1,1.27,1,1.27,2,2.57s1.07,1.25,2.24,2.58c.8-.58.8-.58,1.68-1.19s.94-.71,2-1.44c-.32-2-.32-2-.61-4.13s-.26-2.13-.5-4.3Zm-1-34.87L11.68,89c-.95-.83-.95-.83-1.82-1.66-1,1.15-1,1.15-2,2.29S7,90.71,6.15,91.8C6,93.71,6,93.71,5.87,95.62s-.09,1.91-.14,3.81l1.52,1.92c.88,1.06.88,1.06,1.83,2.07,1-1,1-1,2-2.11s1.13-1.07,2.33-2.16c.05-2.12.05-2.12.12-4.2s.11-2.14.23-4.18Zm3.69-30.23c-.57-.23-.57-.23-1.06-.46l-.85-.36c-.74.82-.74.82-1.43,1.63s-.65.79-1.27,1.61c-.37,1-.37,1-.72,2s-.33,1.06-.63,2.12c.31.32.31.32.67.66s.42.35.9.72c.75-.81.75-.81,1.55-1.62s.83-.83,1.69-1.65c.26-1.19.26-1.19.55-2.39s.28-1.13.6-2.26Zm-5.7,79.39c.4,1.59.4,1.59.84,3.18s.43,1.47.91,2.94l-.93.55a3.21,3.21,0,0,0-.67.33c-.8-1.12-.8-1.12-1.56-2.27s-.7-1.12-1.35-2.27-.54-1.27-1-2.55-.51-1.42-1-2.79c.17-.33.17-.33.41-.74l.72-.85c.8,1.06.8,1.06,1.69,2.2s1,1.16,1.94,2.27ZM8.05,107.71c.06,2.27.06,2.27.16,4.6s.13,2.27.29,4.48c-.94.94-.94.94-1.79,1.9a12.83,12.83,0,0,0-1.45,1.69c-.87-1.31-.87-1.31-1.65-2.52s-.7-1.24-1.32-2.43c-.18-1.94-.18-1.94-.33-4s-.11-2-.18-4c.5-1,.5-1,1.09-2s.67-1.11,1.43-2.26c.81,1.1.81,1.1,1.71,2.25s1,1.17,2,2.31ZM10.16,75.4c-.35,1.87-.35,1.87-.65,3.73S9.23,81.05,9,83c-1,1.16-1,1.16-2,2.29s-.88,1.11-1.69,2.2c-.55-.75-.55-.75-1-1.49s-.39-.68-.72-1.28c.28-1.71.28-1.71.6-3.41s.35-1.63.74-3.25c.61-1.13.61-1.13,1.3-2.3S7,74.53,7.83,73.31c.46.46.46.46,1,1A11.47,11.47,0,0,0,10.16,75.4Z"/><path class="cls-3" d="M386.32,169.32h-2.09V151h2.25v6.53a4.47,4.47,0,0,1,3.63-1.78,5.71,5.71,0,0,1,2.32.49,4.79,4.79,0,0,1,1.8,1.39,6.51,6.51,0,0,1,1.1,2.15,8.71,8.71,0,0,1,.4,2.69,7.57,7.57,0,0,1-1.68,5.26,5.27,5.27,0,0,1-4,1.85,4.23,4.23,0,0,1-3.69-1.95v1.67Zm0-6.73A6.89,6.89,0,0,0,387,166a3.21,3.21,0,0,0,5.41.46,7.47,7.47,0,0,0,0-7.64,3.13,3.13,0,0,0-2.48-1.24,3.23,3.23,0,0,0-2.55,1.28,5.65,5.65,0,0,0-1.07,3.7Zm12.07,11.83-.26-2.08a4.78,4.78,0,0,0,1.29.2,2.43,2.43,0,0,0,1.2-.25,2,2,0,0,0,.74-.7,11.19,11.19,0,0,0,.69-1.67c0-.13.11-.31.2-.55l-5-13.31h2.41l2.77,7.66a31.39,31.39,0,0,1,1,3.06c.26-1,.57-2,.93-3l2.83-7.73h2.24l-5,13.49a25.26,25.26,0,0,1-1.27,3,4.54,4.54,0,0,1-1.37,1.63,3.32,3.32,0,0,1-1.86.51,4.58,4.58,0,0,1-1.45-.27Zm33.3-11.52,2.43.62a8.1,8.1,0,0,1-2.73,4.54,7.51,7.51,0,0,1-4.83,1.57,8.64,8.64,0,0,1-4.81-1.21,7.5,7.5,0,0,1-2.82-3.48,12.57,12.57,0,0,1-1-4.91,10.75,10.75,0,0,1,1.09-5,7.45,7.45,0,0,1,3.1-3.23,9,9,0,0,1,4.43-1.11,7.5,7.5,0,0,1,4.62,1.4A7.23,7.23,0,0,1,433.8,156l-2.38.56a5.63,5.63,0,0,0-1.85-2.91,4.92,4.92,0,0,0-3-.91,5.93,5.93,0,0,0-3.52,1,5.35,5.35,0,0,0-2,2.72,10.72,10.72,0,0,0-.58,3.51,11.15,11.15,0,0,0,.68,4.07,5,5,0,0,0,2.11,2.61,5.91,5.91,0,0,0,3.1.86,5.19,5.19,0,0,0,3.43-1.17,6,6,0,0,0,1.9-3.49Zm5.12,6.42V156.06h2v2a5.4,5.4,0,0,1,1.43-1.86,2.45,2.45,0,0,1,1.45-.46,4.39,4.39,0,0,1,2.31.72l-.8,2.07a3.29,3.29,0,0,0-1.64-.46,2.11,2.11,0,0,0-1.31.44,2.4,2.4,0,0,0-.83,1.23,8.42,8.42,0,0,0-.38,2.62v6.93Zm8.54-15.74V151h2.25v2.56Zm0,15.74V156.06h2.25v13.26Zm5.68,0V156.06h2v1.87a4.71,4.71,0,0,1,4-2.16,4.39,4.39,0,0,1,2.41.61,3.29,3.29,0,0,1,1.33,1.71,4.78,4.78,0,0,1,4.11-2.32,4.1,4.1,0,0,1,3.05,1.09,4.67,4.67,0,0,1,1.07,3.37v9.09h-2.25V161a6.36,6.36,0,0,0-.22-1.94,1.89,1.89,0,0,0-.8-.95,2.52,2.52,0,0,0-1.35-.36,3.15,3.15,0,0,0-2.33.93,4.07,4.07,0,0,0-.93,3v7.7h-2.25v-8.61a3.74,3.74,0,0,0-.55-2.24,2.06,2.06,0,0,0-1.79-.75,3.24,3.24,0,0,0-1.76.5,2.8,2.8,0,0,0-1.16,1.46,8.24,8.24,0,0,0-.36,2.77v6.87Zm20.4-4,2.22-.36a3.16,3.16,0,0,0,1.05,2.05,3.66,3.66,0,0,0,2.39.71,3.56,3.56,0,0,0,2.31-.63,1.87,1.87,0,0,0,.75-1.48,1.36,1.36,0,0,0-.68-1.19,10.37,10.37,0,0,0-2.3-.77,21.2,21.2,0,0,1-3.42-1.07,3.36,3.36,0,0,1-1.44-1.26,3.31,3.31,0,0,1-.5-1.77,3.41,3.41,0,0,1,.41-1.64,3.71,3.71,0,0,1,1.1-1.26,4.91,4.91,0,0,1,1.43-.65,6.74,6.74,0,0,1,1.94-.27,7.37,7.37,0,0,1,2.73.46,3.7,3.7,0,0,1,1.75,1.21,4.9,4.9,0,0,1,.77,2.07l-2.2.3a2.45,2.45,0,0,0-.87-1.62,3.16,3.16,0,0,0-2-.58,3.64,3.64,0,0,0-2.2.52,1.49,1.49,0,0,0-.66,1.19,1.26,1.26,0,0,0,.27.79,2,2,0,0,0,.86.6c.23.08.88.28,2,.57a26.88,26.88,0,0,1,3.32,1,3.45,3.45,0,0,1,1.49,1.18,3.25,3.25,0,0,1,.54,1.92,3.73,3.73,0,0,1-.66,2.11,4.26,4.26,0,0,1-1.89,1.53,6.79,6.79,0,0,1-2.8.54,6.27,6.27,0,0,1-3.94-1.06,5,5,0,0,1-1.73-3.18Zm12.83-2.67q0-3.67,2.05-5.45a6.18,6.18,0,0,1,4.17-1.47,6,6,0,0,1,4.47,1.79,6.78,6.78,0,0,1,1.74,4.94,8.76,8.76,0,0,1-.77,4,5.44,5.44,0,0,1-2.24,2.27,6.37,6.37,0,0,1-3.2.81,6,6,0,0,1-4.5-1.78,7.09,7.09,0,0,1-1.72-5.13Zm2.3,0a5.58,5.58,0,0,0,1.12,3.81,3.72,3.72,0,0,0,5.59,0,5.7,5.7,0,0,0,1.12-3.87,5.45,5.45,0,0,0-1.12-3.71,3.72,3.72,0,0,0-5.59,0,5.54,5.54,0,0,0-1.12,3.79Zm12.76,6.63V156.06h2v1.88a4.77,4.77,0,0,1,4.22-2.17,5.64,5.64,0,0,1,2.2.43,3.5,3.5,0,0,1,1.5,1.13,4.21,4.21,0,0,1,.7,1.66,13.18,13.18,0,0,1,.13,2.19v8.14h-2.25v-8.06a6.17,6.17,0,0,0-.26-2,2.23,2.23,0,0,0-.93-1.09,3,3,0,0,0-1.57-.4,3.63,3.63,0,0,0-2.47.91c-.69.6-1,1.76-1,3.45v7.24Zm21.56,0V151h3.62l4.33,13c.4,1.2.69,2.1.88,2.71.21-.67.53-1.65,1-2.94l4.4-12.73h3.25v18.3H536V154l-5.34,15.31h-2.19l-5.28-15.59v15.59Zm29.73-1.66a8.6,8.6,0,0,1-2.42,1.51,7,7,0,0,1-2.48.43,4.82,4.82,0,0,1-3.36-1.06,3.49,3.49,0,0,1-1.18-2.72,3.68,3.68,0,0,1,1.61-3.06,5.45,5.45,0,0,1,1.62-.74,17.72,17.72,0,0,1,2-.34,19.93,19.93,0,0,0,4-.77c0-.3,0-.5,0-.58a2.49,2.49,0,0,0-.64-1.93,3.78,3.78,0,0,0-2.57-.76,4,4,0,0,0-2.34.56,3.37,3.37,0,0,0-1.12,2l-2.2-.31a5.56,5.56,0,0,1,1-2.28,4.42,4.42,0,0,1,2-1.34,8.91,8.91,0,0,1,3-.47,8.14,8.14,0,0,1,2.76.4,3.16,3.16,0,0,1,2.27,2.54,13.45,13.45,0,0,1,.11,2.07v3a33.35,33.35,0,0,0,.14,4,5.15,5.15,0,0,0,.55,1.6H551a4.76,4.76,0,0,1-.43-1.66Zm-.18-5a16.76,16.76,0,0,1-3.68.84,8.14,8.14,0,0,0-2,.45,1.94,1.94,0,0,0-.89.72,1.91,1.91,0,0,0-.31,1.07,1.86,1.86,0,0,0,.68,1.48,2.92,2.92,0,0,0,2,.6,4.67,4.67,0,0,0,2.32-.57,3.44,3.44,0,0,0,1.48-1.54,5.43,5.43,0,0,0,.36-2.24l0-.81Zm14.39,1.79,2.2.3a5.6,5.6,0,0,1-1.85,3.55,5.38,5.38,0,0,1-3.66,1.28,5.67,5.67,0,0,1-4.36-1.77,7.17,7.17,0,0,1-1.66-5.09,9.26,9.26,0,0,1,.71-3.75,5,5,0,0,1,2.17-2.41,6.38,6.38,0,0,1,3.16-.81,5.53,5.53,0,0,1,3.53,1.09A5.07,5.07,0,0,1,566.8,160l-2.17.33a3.64,3.64,0,0,0-1.11-2,2.87,2.87,0,0,0-1.92-.68,3.5,3.5,0,0,0-2.76,1.22,5.75,5.75,0,0,0-1.07,3.85,5.93,5.93,0,0,0,1,3.87,3.31,3.31,0,0,0,2.67,1.21,3.15,3.15,0,0,0,2.21-.81,3.92,3.92,0,0,0,1.12-2.48Zm12.79,3.19a8.6,8.6,0,0,1-2.42,1.51,7,7,0,0,1-2.48.43,4.82,4.82,0,0,1-3.36-1.06,3.49,3.49,0,0,1-1.18-2.72,3.68,3.68,0,0,1,1.61-3.06,5.45,5.45,0,0,1,1.62-.74,17.72,17.72,0,0,1,2-.34,19.93,19.93,0,0,0,4-.77c0-.3,0-.5,0-.58a2.49,2.49,0,0,0-.64-1.93,3.78,3.78,0,0,0-2.57-.76,4,4,0,0,0-2.34.56,3.37,3.37,0,0,0-1.12,2l-2.2-.31a5.43,5.43,0,0,1,1-2.28,4.42,4.42,0,0,1,2-1.34,8.91,8.91,0,0,1,3-.47,8.14,8.14,0,0,1,2.76.4,3.16,3.16,0,0,1,2.27,2.54,13.45,13.45,0,0,1,.11,2.07v3a33.35,33.35,0,0,0,.14,4,5.15,5.15,0,0,0,.55,1.6H578a4.76,4.76,0,0,1-.43-1.66Zm-.18-5a16.76,16.76,0,0,1-3.68.84,8.14,8.14,0,0,0-2,.45,1.94,1.94,0,0,0-.89.72,1.91,1.91,0,0,0-.31,1.07,1.86,1.86,0,0,0,.68,1.48,2.92,2.92,0,0,0,2,.6,4.6,4.6,0,0,0,2.31-.57,3.41,3.41,0,0,0,1.49-1.54,5.43,5.43,0,0,0,.36-2.24l0-.81Zm8.11,6.64-4-13.26h2.36l2.11,7.65.75,2.85q0-.21.69-2.73l2.1-7.77h2.31l2,7.7.66,2.53.76-2.57,2.29-7.66h2.19l-4.17,13.26h-2.32l-2.11-7.93-.53-2.28-2.68,10.21Z"/></g></g></svg>